<svg width="205" height="66" viewBox="0 0 205 66" fill="none" xmlns="http://www.w3.org/2000/svg">
<path d="M46.9716 34.6341C46.7975 35.0557 46.6212 35.4773 46.4448 35.8966C45.8365 35.9572 45.14 36.0341 44.481 36.1319C42.7529 36.3858 40.5819 37.1219 36.2596 39.2509C31.9395 41.3846 28.2674 46.3323 25.3514 50.821C22.4353 55.312 19.5545 65.3214 17.2137 65.7011C14.8751 66.0831 12.9664 62.1255 12.0649 60.5275C11.1656 58.9272 8.93281 53.9423 7.92552 51.4313C6.91824 48.9179 3.94046 39.9637 2.3557 34.0774C0.773133 28.1887 0.149364 22.5073 0.00389208 15.1488C-0.139376 7.79029 3.70021 3.73251 6.96452 2.36283C7.00861 2.3442 7.05049 2.32789 7.09677 2.31158C8.78734 1.68731 11.7365 2.16483 15.1925 3.57644C18.5979 4.96941 22.4948 7.27317 26.1559 10.3293C26.1559 10.3293 19.8432 7.28249 15.4504 7.39896C11.0576 7.5131 7.99826 10.101 6.41349 13.4484C4.82873 16.798 4.46945 23.7256 5.04473 29.358C5.62221 34.9905 7.92552 43.6674 9.36482 48.3868C10.8063 53.1061 13.3631 57.4061 14.9831 58.5475C16.6032 59.6889 17.5752 57.9768 19.6867 53.155C21.7983 48.3355 27.3196 42.8545 30.1034 40.4692C32.6801 38.2633 40.8243 35.1652 46.9716 34.6341Z" fill="#0D6EFD"/>
<path d="M6.77271 1.39844C9.12451 0.331583 14.7891 0.839389 20.2135 4.08655C25.64 7.33371 30.1034 10.1243 35.4793 8.55197C40.8573 6.97964 47.1942 4.84826 51.0823 7.0798C54.9703 9.31368 54.9219 15.3002 53.3856 21.3915C51.8493 27.4805 45.6094 42.9057 42.4399 47.7275C39.2726 52.547 38.2653 54.527 38.2653 54.527C59.0502 31.9972 61.2102 13.8304 60.4189 10.3293C59.6277 6.82823 58.7152 5.45623 57.0819 4.34045C55.4508 3.22468 51.274 0.993128 45.5124 2.71687C39.7531 4.44294 37.5445 5.65888 36.0082 6.21793C34.472 6.77698 30.5596 7.13105 28.4481 6.52308C26.3343 5.91278 19.3495 1.29595 15.5584 0.534239C9.90477 -0.555912 6.77271 1.39844 6.77271 1.39844Z" fill="#0D6EFD"/>
<path d="M73.9921 30.6077C72.6641 30.6077 71.4721 30.3517 70.4161 29.8397C69.3761 29.3117 68.5601 28.5917 67.9681 27.6797C67.3761 26.7517 67.0801 25.7277 67.0801 24.6077V19.3277C67.0801 18.2077 67.3761 17.1997 67.9681 16.3037C68.5601 15.3917 69.3761 14.6797 70.4161 14.1677C71.4721 13.6397 72.6641 13.3757 73.9921 13.3757C75.3361 13.3757 76.5281 13.6397 77.5681 14.1677C78.6241 14.6797 79.4481 15.3917 80.0401 16.3037C80.6321 17.1997 80.9281 18.2077 80.9281 19.3277V24.6077C80.9281 25.7277 80.6321 26.7517 80.0401 27.6797C79.4481 28.5917 78.6241 29.3117 77.5681 29.8397C76.5121 30.3517 75.3201 30.6077 73.9921 30.6077ZM73.9921 28.6397C75.4801 28.6397 76.6401 28.2717 77.4721 27.5357C78.3041 26.7997 78.7201 25.8157 78.7201 24.5837V19.3757C78.7201 18.1437 78.3041 17.1677 77.4721 16.4477C76.6401 15.7117 75.4801 15.3437 73.9921 15.3437C72.5201 15.3437 71.3681 15.7117 70.5361 16.4477C69.7041 17.1677 69.2881 18.1437 69.2881 19.3757V24.5837C69.2881 25.8157 69.7041 26.7997 70.5361 27.5357C71.3681 28.2717 72.5201 28.6397 73.9921 28.6397Z" fill="#1B75BC"/>
<path d="M84.8399 30.3917C84.5199 30.3917 84.2479 30.2957 84.0239 30.1037C83.7999 29.8957 83.6879 29.6397 83.6879 29.3357V14.6477C83.6879 14.3437 83.7919 14.0957 83.9999 13.9037C84.2239 13.6957 84.5039 13.5917 84.8399 13.5917H90.4559C91.8159 13.5917 93.0159 13.8477 94.0559 14.3597C95.0959 14.8717 95.9039 15.5917 96.4799 16.5197C97.0719 17.4317 97.3679 18.4797 97.3679 19.6637V24.2717C97.3679 25.4557 97.0719 26.5117 96.4799 27.4397C95.9039 28.3677 95.0879 29.0957 94.0319 29.6237C92.9919 30.1357 91.7999 30.3917 90.4559 30.3917H84.8399ZM90.2159 28.4237C91.7519 28.4237 92.9519 28.0637 93.8159 27.3437C94.6799 26.6077 95.1119 25.5917 95.1119 24.2957V19.6397C95.1119 18.3597 94.6799 17.3597 93.8159 16.6397C92.9519 15.9197 91.7519 15.5597 90.2159 15.5597H85.9439V28.4237H90.2159Z" fill="#1B75BC"/>
<path d="M106.805 30.6077C105.477 30.6077 104.285 30.3517 103.229 29.8397C102.189 29.3117 101.373 28.5917 100.781 27.6797C100.189 26.7517 99.8926 25.7277 99.8926 24.6077V19.3277C99.8926 18.2077 100.189 17.1997 100.781 16.3037C101.373 15.3917 102.189 14.6797 103.229 14.1677C104.285 13.6397 105.477 13.3757 106.805 13.3757C108.149 13.3757 109.341 13.6397 110.381 14.1677C111.437 14.6797 112.261 15.3917 112.853 16.3037C113.445 17.1997 113.741 18.2077 113.741 19.3277V24.6077C113.741 25.7277 113.445 26.7517 112.853 27.6797C112.261 28.5917 111.437 29.3117 110.381 29.8397C109.325 30.3517 108.133 30.6077 106.805 30.6077ZM106.805 28.6397C108.293 28.6397 109.453 28.2717 110.285 27.5357C111.117 26.7997 111.533 25.8157 111.533 24.5837V19.3757C111.533 18.1437 111.117 17.1677 110.285 16.4477C109.453 15.7117 108.293 15.3437 106.805 15.3437C105.333 15.3437 104.181 15.7117 103.349 16.4477C102.517 17.1677 102.101 18.1437 102.101 19.3757V24.5837C102.101 25.8157 102.517 26.7997 103.349 27.5357C104.181 28.2717 105.333 28.6397 106.805 28.6397Z" fill="#1B75BC"/>
<path d="M116.5 15.3197C116.5 14.7117 116.684 14.2397 117.052 13.9037C117.436 13.5517 117.964 13.3757 118.636 13.3757L127.948 27.5357L128.116 27.3917L127.42 26.2397V13.3757C128.156 13.3757 128.708 13.5357 129.076 13.8557C129.46 14.1757 129.652 14.6397 129.652 15.2477V28.8317C129.652 29.3437 129.468 29.7677 129.1 30.1037C128.748 30.4397 128.292 30.6077 127.732 30.6077L118.204 16.1357L118.036 16.2797L118.732 17.4317V28.7357C118.732 29.3437 118.54 29.8077 118.156 30.1277C117.788 30.4477 117.236 30.6077 116.5 30.6077V15.3197Z" fill="#1B75BC"/>
<path d="M137.43 15.5837H131.574C131.574 14.2557 132.198 13.5917 133.446 13.5917H145.518C145.518 14.9197 144.894 15.5837 143.646 15.5837H139.686V28.7357C139.686 29.3437 139.494 29.8077 139.11 30.1277C138.726 30.4477 138.166 30.6077 137.43 30.6077V15.5837Z" fill="#1B75BC"/>
<path d="M152.789 30.6077C151.461 30.6077 150.269 30.3517 149.213 29.8397C148.173 29.3117 147.357 28.5917 146.765 27.6797C146.173 26.7517 145.877 25.7277 145.877 24.6077V19.3277C145.877 18.2077 146.173 17.1997 146.765 16.3037C147.357 15.3917 148.173 14.6797 149.213 14.1677C150.269 13.6397 151.461 13.3757 152.789 13.3757C154.133 13.3757 155.325 13.6397 156.365 14.1677C157.421 14.6797 158.245 15.3917 158.837 16.3037C159.429 17.1997 159.725 18.2077 159.725 19.3277V24.6077C159.725 25.7277 159.429 26.7517 158.837 27.6797C158.245 28.5917 157.421 29.3117 156.365 29.8397C155.309 30.3517 154.117 30.6077 152.789 30.6077ZM152.789 28.6397C154.277 28.6397 155.437 28.2717 156.269 27.5357C157.101 26.7997 157.517 25.8157 157.517 24.5837V19.3757C157.517 18.1437 157.101 17.1677 156.269 16.4477C155.437 15.7117 154.277 15.3437 152.789 15.3437C151.317 15.3437 150.165 15.7117 149.333 16.4477C148.501 17.1677 148.085 18.1437 148.085 19.3757V24.5837C148.085 25.8157 148.501 26.7997 149.333 27.5357C150.165 28.2717 151.317 28.6397 152.789 28.6397Z" fill="#1B75BC"/>
<path d="M168.672 14.6477C168.672 14.3437 168.776 14.0957 168.984 13.9037C169.208 13.6957 169.488 13.5917 169.824 13.5917H176.448C178 13.5917 179.232 14.0477 180.144 14.9597C181.072 15.8557 181.536 17.0557 181.536 18.5597C181.536 20.4477 180.712 21.7837 179.064 22.5677V22.6397C179.784 22.9437 180.336 23.4077 180.72 24.0317C181.104 24.6397 181.296 25.3837 181.296 26.2637V28.7357C181.296 29.3437 181.104 29.8077 180.72 30.1277C180.336 30.4477 179.776 30.6077 179.04 30.6077V26.4077C179.04 25.4637 178.824 24.7517 178.392 24.2717C177.976 23.7757 177.352 23.5277 176.52 23.5277H170.904V28.7357C170.904 29.3437 170.712 29.8077 170.328 30.1277C169.96 30.4477 169.408 30.6077 168.672 30.6077V14.6477ZM176.376 21.5837C177.256 21.5837 177.952 21.3117 178.464 20.7677C178.992 20.2237 179.256 19.4797 179.256 18.5357C179.256 17.5757 179.008 16.8397 178.512 16.3277C178.016 15.8157 177.304 15.5597 176.376 15.5597H170.904V21.5837H176.376Z" fill="#1B75BC"/>
<path d="M185.137 15.2477C185.137 14.6557 185.329 14.1997 185.713 13.8797C186.113 13.5437 186.673 13.3757 187.393 13.3757V28.7357C187.393 29.3277 187.193 29.7917 186.793 30.1277C186.409 30.4477 185.857 30.6077 185.137 30.6077V15.2477Z" fill="#1B75BC"/>
<path d="M197.555 30.6077C196.227 30.6077 195.035 30.3517 193.979 29.8397C192.939 29.3117 192.123 28.5917 191.531 27.6797C190.939 26.7517 190.643 25.7277 190.643 24.6077V19.3277C190.643 18.2077 190.939 17.1997 191.531 16.3037C192.123 15.3917 192.939 14.6797 193.979 14.1677C195.035 13.6397 196.227 13.3757 197.555 13.3757C198.899 13.3757 200.091 13.6397 201.131 14.1677C202.187 14.6797 203.011 15.3917 203.603 16.3037C204.195 17.1997 204.491 18.2077 204.491 19.3277V24.6077C204.491 25.7277 204.195 26.7517 203.603 27.6797C203.011 28.5917 202.187 29.3117 201.131 29.8397C200.075 30.3517 198.883 30.6077 197.555 30.6077ZM197.555 28.6397C199.043 28.6397 200.203 28.2717 201.035 27.5357C201.867 26.7997 202.283 25.8157 202.283 24.5837V19.3757C202.283 18.1437 201.867 17.1677 201.035 16.4477C200.203 15.7117 199.043 15.3437 197.555 15.3437C196.083 15.3437 194.931 15.7117 194.099 16.4477C193.267 17.1677 192.851 18.1437 192.851 19.3757V24.5837C192.851 25.8157 193.267 26.7997 194.099 27.5357C194.931 28.2717 196.083 28.6397 197.555 28.6397Z" fill="#1B75BC"/>
<path d="M70.8623 44.544C69.5716 44.544 68.5369 44.1187 67.7583 43.2681C66.9839 42.4175 66.5967 41.3109 66.5967 39.9483C66.5967 38.4841 66.9924 37.3161 67.7837 36.4444C68.575 35.5727 69.652 35.1368 71.0146 35.1368C72.2715 35.1368 73.2829 35.56 74.0488 36.4063C74.819 37.2527 75.2041 38.3593 75.2041 39.7261C75.2041 41.2115 74.8105 42.3858 74.0234 43.2491C73.2363 44.1124 72.1826 44.544 70.8623 44.544ZM70.9385 36.1016C69.9821 36.1016 69.2056 36.4465 68.6089 37.1363C68.0122 37.8261 67.7139 38.7317 67.7139 39.8531C67.7139 40.9745 68.0037 41.878 68.5835 42.5635C69.1675 43.2449 69.9271 43.5855 70.8623 43.5855C71.861 43.5855 72.6481 43.2597 73.2236 42.608C73.7992 41.9563 74.0869 41.0443 74.0869 39.8721C74.0869 38.6703 73.8076 37.7414 73.249 37.0855C72.6904 36.4296 71.9202 36.1016 70.9385 36.1016Z" fill="#0D6EFD"/>
<path d="M82.4023 44.3917H81.3613V43.2872H81.3359C80.8535 44.1251 80.1087 44.544 79.1016 44.544C78.2848 44.544 77.631 44.2541 77.1401 43.6744C76.6535 43.0904 76.4102 42.2969 76.4102 41.294C76.4102 40.2191 76.681 39.358 77.2227 38.7105C77.7643 38.063 78.4858 37.7393 79.3872 37.7393C80.2801 37.7393 80.9297 38.0906 81.3359 38.793H81.3613V34.7686H82.4023V44.3917ZM81.3613 41.4527V40.4942C81.3613 39.9695 81.1878 39.5251 80.8408 39.1612C80.4938 38.7973 80.0537 38.6153 79.5205 38.6153C78.8857 38.6153 78.3864 38.848 78.0225 39.3135C77.6585 39.779 77.4766 40.4223 77.4766 41.2432C77.4766 41.9922 77.6501 42.5847 77.9971 43.0206C78.3483 43.4522 78.818 43.668 79.4062 43.668C79.986 43.668 80.4557 43.4586 80.8154 43.0396C81.1794 42.6207 81.3613 42.0917 81.3613 41.4527Z" fill="#0D6EFD"/>
<path d="M87.2266 44.544C86.266 44.544 85.4979 44.2414 84.9224 43.6363C84.3511 43.0269 84.0654 42.2208 84.0654 41.2178C84.0654 40.126 84.3638 39.2733 84.9604 38.6597C85.5571 38.0461 86.3633 37.7393 87.3789 37.7393C88.348 37.7393 89.1034 38.0377 89.645 38.6343C90.1909 39.231 90.4639 40.0583 90.4639 41.1163C90.4639 42.1531 90.1698 42.9846 89.5815 43.6109C88.9976 44.233 88.2126 44.544 87.2266 44.544ZM87.3027 38.6153C86.6341 38.6153 86.1051 38.8438 85.7158 39.3008C85.3265 39.7536 85.1318 40.3799 85.1318 41.1797C85.1318 41.9499 85.3286 42.5572 85.7222 43.0015C86.1157 43.4459 86.6426 43.668 87.3027 43.668C87.9756 43.668 88.4919 43.4501 88.8516 43.0142C89.2155 42.5783 89.3975 41.9584 89.3975 41.1544C89.3975 40.3419 89.2155 39.7156 88.8516 39.2755C88.4919 38.8353 87.9756 38.6153 87.3027 38.6153Z" fill="#0D6EFD"/>
<path d="M97.5225 44.3917H96.4814V40.6846C96.4814 39.3051 95.9779 38.6153 94.9707 38.6153C94.4502 38.6153 94.0186 38.8121 93.6758 39.2056C93.3372 39.595 93.168 40.088 93.168 40.6846V44.3917H92.127V37.8917H93.168V38.9708H93.1934C93.6842 38.1498 94.3952 37.7393 95.3262 37.7393C96.0371 37.7393 96.5809 37.97 96.9575 38.4312C97.3341 38.8882 97.5225 39.5505 97.5225 40.418V44.3917Z" fill="#0D6EFD"/>
<path d="M102.505 44.3282C102.26 44.4636 101.936 44.5313 101.534 44.5313C100.396 44.5313 99.8267 43.8965 99.8267 42.627V38.7803H98.7095V37.8917H99.8267V36.3047L100.868 35.9683V37.8917H102.505V38.7803H100.868V42.4429C100.868 42.8788 100.942 43.1898 101.09 43.376C101.238 43.5622 101.483 43.6553 101.826 43.6553C102.089 43.6553 102.315 43.5834 102.505 43.4395V44.3282Z" fill="#0D6EFD"/>
<path d="M106.612 44.544C105.652 44.544 104.884 44.2414 104.308 43.6363C103.737 43.0269 103.451 42.2208 103.451 41.2178C103.451 40.126 103.75 39.2733 104.346 38.6597C104.943 38.0461 105.749 37.7393 106.765 37.7393C107.734 37.7393 108.489 38.0377 109.031 38.6343C109.577 39.231 109.85 40.0583 109.85 41.1163C109.85 42.1531 109.556 42.9846 108.967 43.6109C108.383 44.233 107.598 44.544 106.612 44.544ZM106.688 38.6153C106.02 38.6153 105.491 38.8438 105.102 39.3008C104.712 39.7536 104.518 40.3799 104.518 41.1797C104.518 41.9499 104.714 42.5572 105.108 43.0015C105.501 43.4459 106.028 43.668 106.688 43.668C107.361 43.668 107.878 43.4501 108.237 43.0142C108.601 42.5783 108.783 41.9584 108.783 41.1544C108.783 40.3419 108.601 39.7156 108.237 39.2755C107.878 38.8353 107.361 38.6153 106.688 38.6153Z" fill="#0D6EFD"/>
<path d="M112.554 44.3917H111.513V34.7686H112.554V44.3917Z" fill="#0D6EFD"/>
<path d="M117.378 44.544C116.417 44.544 115.649 44.2414 115.074 43.6363C114.502 43.0269 114.217 42.2208 114.217 41.2178C114.217 40.126 114.515 39.2733 115.112 38.6597C115.708 38.0461 116.515 37.7393 117.53 37.7393C118.499 37.7393 119.255 38.0377 119.796 38.6343C120.342 39.231 120.615 40.0583 120.615 41.1163C120.615 42.1531 120.321 42.9846 119.733 43.6109C119.149 44.233 118.364 44.544 117.378 44.544ZM117.454 38.6153C116.785 38.6153 116.257 38.8438 115.867 39.3008C115.478 39.7536 115.283 40.3799 115.283 41.1797C115.283 41.9499 115.48 42.5572 115.874 43.0015C116.267 43.4459 116.794 43.668 117.454 43.668C118.127 43.668 118.643 43.4501 119.003 43.0142C119.367 42.5783 119.549 41.9584 119.549 41.1544C119.549 40.3419 119.367 39.7156 119.003 39.2755C118.643 38.8353 118.127 38.6153 117.454 38.6153Z" fill="#0D6EFD"/>
<path d="M127.826 43.8712C127.826 46.2579 126.684 47.4512 124.398 47.4512C123.594 47.4512 122.892 47.2989 122.291 46.9942V45.9532C123.023 46.3594 123.721 46.5626 124.386 46.5626C125.985 46.5626 126.785 45.712 126.785 44.0108V43.2999H126.76C126.265 44.1293 125.52 44.544 124.525 44.544C123.717 44.544 123.065 44.2562 122.57 43.6807C122.079 43.101 121.834 42.3244 121.834 41.3511C121.834 40.2466 122.098 39.3686 122.627 38.7169C123.161 38.0652 123.889 37.7393 124.811 37.7393C125.687 37.7393 126.337 38.0906 126.76 38.793H126.785V37.8917H127.826V43.8712ZM126.785 41.4527V40.4942C126.785 39.9779 126.61 39.5357 126.258 39.1675C125.911 38.7994 125.478 38.6153 124.957 38.6153C124.314 38.6153 123.81 38.8502 123.446 39.3199C123.082 39.7854 122.9 40.4392 122.9 41.2813C122.9 42.0049 123.074 42.5847 123.421 43.0206C123.772 43.4522 124.236 43.668 124.811 43.668C125.395 43.668 125.869 43.4607 126.233 43.046C126.601 42.6312 126.785 42.1002 126.785 41.4527Z" fill="#0D6EFD"/>
<path d="M130.467 36.2413C130.281 36.2413 130.122 36.1778 129.991 36.0508C129.86 35.9239 129.794 35.7631 129.794 35.5684C129.794 35.3738 129.86 35.213 129.991 35.086C130.122 34.9548 130.281 34.8892 130.467 34.8892C130.657 34.8892 130.818 34.9548 130.949 35.086C131.085 35.213 131.152 35.3738 131.152 35.5684C131.152 35.7546 131.085 35.9133 130.949 36.0445C130.818 36.1757 130.657 36.2413 130.467 36.2413ZM130.975 44.3917H129.934V37.8917H130.975V44.3917Z" fill="#0D6EFD"/>
<path d="M137.735 44.3917H136.694V43.376H136.668C136.216 44.1547 135.549 44.544 134.669 44.544C134.021 44.544 133.514 44.3726 133.146 44.0298C132.782 43.6871 132.6 43.2322 132.6 42.6651C132.6 41.4506 133.315 40.7439 134.745 40.545L136.694 40.272C136.694 39.1675 136.247 38.6153 135.354 38.6153C134.572 38.6153 133.865 38.8819 133.234 39.4151V38.3487C133.873 37.9424 134.61 37.7393 135.443 37.7393C136.971 37.7393 137.735 38.5476 137.735 40.1641V44.3917ZM136.694 41.1036L135.126 41.3194C134.644 41.3871 134.28 41.5077 134.034 41.6812C133.789 41.8505 133.666 42.1531 133.666 42.5889C133.666 42.9063 133.778 43.1666 134.002 43.3697C134.231 43.5686 134.534 43.668 134.91 43.668C135.426 43.668 135.852 43.4882 136.186 43.1285C136.525 42.7645 136.694 42.3054 136.694 41.751V41.1036Z" fill="#0D6EFD"/>
<path d="M144.33 43.4522H144.305V47.3814H143.264V37.8917H144.305V39.0342H144.33C144.842 38.171 145.591 37.7393 146.577 37.7393C147.415 37.7393 148.069 38.0313 148.539 38.6153C149.008 39.195 149.243 39.9737 149.243 40.9512C149.243 42.0388 148.979 42.9105 148.45 43.5665C147.921 44.2182 147.197 44.544 146.279 44.544C145.437 44.544 144.787 44.1801 144.33 43.4522ZM144.305 40.8306V41.7383C144.305 42.2758 144.478 42.7328 144.825 43.1094C145.176 43.4818 145.621 43.668 146.158 43.668C146.789 43.668 147.282 43.4268 147.637 42.9444C147.997 42.462 148.177 41.7912 148.177 40.9322C148.177 40.2086 148.01 39.6415 147.675 39.231C147.341 38.8205 146.888 38.6153 146.317 38.6153C145.712 38.6153 145.225 38.8269 144.857 39.2501C144.489 39.669 144.305 40.1959 144.305 40.8306Z" fill="#0D6EFD"/>
<path d="M155.559 44.3917H154.518V43.376H154.493C154.04 44.1547 153.373 44.544 152.493 44.544C151.846 44.544 151.338 44.3726 150.97 44.0298C150.606 43.6871 150.424 43.2322 150.424 42.6651C150.424 41.4506 151.139 40.7439 152.569 40.545L154.518 40.272C154.518 39.1675 154.072 38.6153 153.179 38.6153C152.396 38.6153 151.689 38.8819 151.059 39.4151V38.3487C151.698 37.9424 152.434 37.7393 153.268 37.7393C154.795 37.7393 155.559 38.5476 155.559 40.1641V44.3917ZM154.518 41.1036L152.95 41.3194C152.468 41.3871 152.104 41.5077 151.858 41.6812C151.613 41.8505 151.49 42.1531 151.49 42.5889C151.49 42.9063 151.602 43.1666 151.827 43.3697C152.055 43.5686 152.358 43.668 152.734 43.668C153.251 43.668 153.676 43.4882 154.01 43.1285C154.349 42.7645 154.518 42.3054 154.518 41.751V41.1036Z" fill="#0D6EFD"/>
<path d="M160.91 38.9454C160.728 38.8057 160.466 38.7359 160.123 38.7359C159.679 38.7359 159.306 38.9454 159.006 39.3643C158.71 39.7833 158.562 40.3546 158.562 41.0782V44.3917H157.521V37.8917H158.562V39.231H158.587C158.735 38.774 158.961 38.4185 159.266 38.1646C159.571 37.9065 159.911 37.7774 160.288 37.7774C160.559 37.7774 160.766 37.807 160.91 37.8663V38.9454Z" fill="#0D6EFD"/>
<path d="M166.693 44.3917H165.652V43.376H165.626C165.174 44.1547 164.507 44.544 163.627 44.544C162.979 44.544 162.472 44.3726 162.104 44.0298C161.74 43.6871 161.558 43.2322 161.558 42.6651C161.558 41.4506 162.273 40.7439 163.703 40.545L165.652 40.272C165.652 39.1675 165.205 38.6153 164.312 38.6153C163.53 38.6153 162.823 38.8819 162.192 39.4151V38.3487C162.831 37.9424 163.568 37.7393 164.401 37.7393C165.929 37.7393 166.693 38.5476 166.693 40.1641V44.3917ZM165.652 41.1036L164.084 41.3194C163.602 41.3871 163.238 41.5077 162.992 41.6812C162.747 41.8505 162.624 42.1531 162.624 42.5889C162.624 42.9063 162.736 43.1666 162.96 43.3697C163.189 43.5686 163.492 43.668 163.868 43.668C164.384 43.668 164.81 43.4882 165.144 43.1285C165.483 42.7645 165.652 42.3054 165.652 41.751V41.1036Z" fill="#0D6EFD"/>
<path d="M175.237 44.3282C174.991 44.4636 174.668 44.5313 174.266 44.5313C173.127 44.5313 172.558 43.8965 172.558 42.627V38.7803H171.441V37.8917H172.558V36.3047L173.599 35.9683V37.8917H175.237V38.7803H173.599V42.4429C173.599 42.8788 173.673 43.1898 173.821 43.376C173.969 43.5622 174.215 43.6553 174.558 43.6553C174.82 43.6553 175.046 43.5834 175.237 43.4395V44.3282Z" fill="#0D6EFD"/>
<path d="M179.344 44.544C178.383 44.544 177.615 44.2414 177.04 43.6363C176.468 43.0269 176.183 42.2208 176.183 41.2178C176.183 40.126 176.481 39.2733 177.078 38.6597C177.674 38.0461 178.48 37.7393 179.496 37.7393C180.465 37.7393 181.221 38.0377 181.762 38.6343C182.308 39.231 182.581 40.0583 182.581 41.1163C182.581 42.1531 182.287 42.9846 181.699 43.6109C181.115 44.233 180.33 44.544 179.344 44.544ZM179.42 38.6153C178.751 38.6153 178.222 38.8438 177.833 39.3008C177.444 39.7536 177.249 40.3799 177.249 41.1797C177.249 41.9499 177.446 42.5572 177.839 43.0015C178.233 43.4459 178.76 43.668 179.42 43.668C180.093 43.668 180.609 43.4501 180.969 43.0142C181.333 42.5783 181.515 41.9584 181.515 41.1544C181.515 40.3419 181.333 39.7156 180.969 39.2755C180.609 38.8353 180.093 38.6153 179.42 38.6153Z" fill="#0D6EFD"/>
<path d="M189.792 44.3917H188.751V43.2872H188.726C188.243 44.1251 187.498 44.544 186.491 44.544C185.674 44.544 185.021 44.2541 184.53 43.6744C184.043 43.0904 183.8 42.2969 183.8 41.294C183.8 40.2191 184.071 39.358 184.612 38.7105C185.154 38.063 185.875 37.7393 186.777 37.7393C187.67 37.7393 188.319 38.0906 188.726 38.793H188.751V34.7686H189.792V44.3917ZM188.751 41.4527V40.4942C188.751 39.9695 188.577 39.5251 188.23 39.1612C187.883 38.7973 187.443 38.6153 186.91 38.6153C186.275 38.6153 185.776 38.848 185.412 39.3135C185.048 39.779 184.866 40.4223 184.866 41.2432C184.866 41.9922 185.04 42.5847 185.387 43.0206C185.738 43.4522 186.208 43.668 186.796 43.668C187.376 43.668 187.845 43.4586 188.205 43.0396C188.569 42.6207 188.751 42.0917 188.751 41.4527Z" fill="#0D6EFD"/>
<path d="M194.616 44.544C193.656 44.544 192.888 44.2414 192.312 43.6363C191.741 43.0269 191.455 42.2208 191.455 41.2178C191.455 40.126 191.753 39.2733 192.35 38.6597C192.947 38.0461 193.753 37.7393 194.769 37.7393C195.738 37.7393 196.493 38.0377 197.035 38.6343C197.581 39.231 197.854 40.0583 197.854 41.1163C197.854 42.1531 197.559 42.9846 196.971 43.6109C196.387 44.233 195.602 44.544 194.616 44.544ZM194.692 38.6153C194.024 38.6153 193.495 38.8438 193.105 39.3008C192.716 39.7536 192.521 40.3799 192.521 41.1797C192.521 41.9499 192.718 42.5572 193.112 43.0015C193.505 43.4459 194.032 43.668 194.692 43.668C195.365 43.668 195.882 43.4501 196.241 43.0142C196.605 42.5783 196.787 41.9584 196.787 41.1544C196.787 40.3419 196.605 39.7156 196.241 39.2755C195.882 38.8353 195.365 38.6153 194.692 38.6153Z" fill="#0D6EFD"/>
<path d="M199.123 44.1568V43.0396C199.69 43.4586 200.314 43.668 200.996 43.668C201.91 43.668 202.367 43.3633 202.367 42.754C202.367 42.5805 202.326 42.4345 202.246 42.316C202.17 42.1933 202.064 42.0853 201.929 41.9922C201.798 41.8991 201.641 41.8166 201.459 41.7447C201.281 41.6685 201.089 41.5902 200.881 41.5098C200.594 41.3956 200.34 41.2813 200.12 41.1671C199.904 41.0486 199.722 40.9174 199.574 40.7735C199.43 40.6254 199.32 40.4582 199.244 40.272C199.172 40.0858 199.136 39.8679 199.136 39.6182C199.136 39.3135 199.206 39.0448 199.345 38.8121C199.485 38.5751 199.671 38.3783 199.904 38.2217C200.137 38.0609 200.401 37.9403 200.697 37.8599C200.998 37.7795 201.307 37.7393 201.624 37.7393C202.187 37.7393 202.69 37.8366 203.135 38.0313V39.085C202.657 38.7719 202.106 38.6153 201.484 38.6153C201.29 38.6153 201.114 38.6386 200.958 38.6851C200.801 38.7274 200.666 38.7888 200.551 38.8692C200.441 38.9496 200.354 39.0469 200.291 39.1612C200.232 39.2712 200.202 39.3939 200.202 39.5294C200.202 39.6986 200.232 39.8404 200.291 39.9547C200.354 40.0689 200.445 40.1705 200.564 40.2593C200.682 40.3482 200.826 40.4286 200.996 40.5005C201.165 40.5725 201.357 40.6508 201.573 40.7354C201.861 40.8454 202.119 40.9597 202.348 41.0782C202.576 41.1924 202.771 41.3236 202.932 41.4717C203.092 41.6156 203.215 41.7828 203.3 41.9732C203.389 42.1636 203.433 42.39 203.433 42.6524C203.433 42.974 203.361 43.2533 203.217 43.4903C203.078 43.7273 202.889 43.9241 202.652 44.0806C202.415 44.2372 202.142 44.3536 201.833 44.4297C201.525 44.5059 201.201 44.544 200.862 44.544C200.194 44.544 199.614 44.4149 199.123 44.1568Z" fill="#0D6EFD"/>
</svg>
