<svg version="1.1" id="Layer_1" xmlns="http://www.w3.org/2000/svg" xmlns:xlink="http://www.w3.org/1999/xlink" x="0px" y="0px"
	 width="100%" viewBox="0 0 496 496" enable-background="new 0 0 496 496" xml:space="preserve">
<path fill="#000000" opacity="1.000000" stroke="none" 
	d="
M293.345886,355.536591 
	C303.246094,351.265076 311.870361,345.648438 320.328125,339.667358 
	C325.031982,336.340942 327.243927,331.273834 330.169800,327.196106 
	C332.188416,326.528015 330.848267,329.034943 332.276825,328.659637 
	C338.465973,322.449005 343.037659,315.089325 347.703003,307.796600 
	C352.252167,300.685425 355.132965,292.726624 359.005035,283.700500 
	C360.601410,288.145050 359.125031,290.667633 358.187408,293.107544 
	C352.989380,306.633514 345.764893,319.081848 335.418549,329.192047 
	C327.665070,336.768555 321.373932,345.134644 316.575012,354.711090 
	C314.870544,358.112335 312.594177,359.949280 308.723785,359.343048 
	C295.358856,357.249664 283.220520,362.967804 270.581635,365.403564 
	C250.965302,369.184082 231.745285,367.733582 212.969894,361.276672 
	C206.433701,359.028839 199.869400,359.355438 193.257950,359.077789 
	C190.641235,358.967896 188.222351,358.789276 187.286148,354.871826 
	C191.038452,357.214020 194.637436,357.270508 198.316650,356.605682 
	C198.594498,354.994354 197.236359,354.939636 196.486786,354.541748 
	C162.629929,336.570984 142.080399,308.703735 134.866135,271.138855 
	C133.695251,265.042084 130.939941,259.910980 128.024002,254.703186 
	C126.948898,252.783112 125.503571,250.670609 127.153130,248.691772 
	C133.677765,240.864700 134.018066,230.932343 136.544159,221.774170 
	C143.511002,196.516251 157.542587,175.962219 177.550156,159.306534 
	C178.957413,158.135056 180.497482,157.152573 181.470871,155.519119 
	C182.394592,153.968994 183.436752,152.489441 183.824463,151.897903 
	C190.336487,152.452942 193.586395,147.433197 198.260910,146.478119 
	C198.369995,143.927704 195.305267,145.790955 195.361298,143.773346 
	C214.998016,141.247330 233.688812,132.892303 254.050323,134.654404 
	C264.021118,135.517273 274.050659,135.941269 283.463501,139.588486 
	C291.474823,142.692657 299.660431,142.979736 307.974548,142.248337 
	C311.947021,141.898880 314.704254,142.975540 316.481750,146.703079 
	C321.333191,156.876831 328.619141,165.097397 336.346497,173.280655 
	C349.956635,187.693756 358.602386,205.116226 363.138702,224.492691 
	C363.855499,227.554276 364.459686,230.607422 366.036896,233.469131 
	C367.580688,236.270233 365.214111,239.179169 365.698700,242.389954 
	C366.938568,250.604691 366.490356,258.916992 363.421295,267.151855 
	C365.005249,231.736084 357.125275,199.634079 331.879700,173.491135 
	C334.075165,179.961777 339.821014,184.661942 341.560242,192.402435 
	C337.620697,189.901962 335.937195,186.538132 334.702728,183.345993 
	C326.904755,163.181549 310.079437,153.600098 291.570374,145.866714 
	C289.643433,145.061600 287.645325,145.253845 285.655884,145.253815 
	C262.659729,145.253525 239.661575,145.428268 216.668686,145.156433 
	C210.418549,145.082535 204.912079,146.568558 199.483887,149.345001 
	C189.173477,154.618607 178.997391,159.979401 174.245590,171.543304 
	C173.994858,172.153458 173.785690,172.780701 173.188721,173.060989 
	C172.319870,170.072876 174.493591,168.557495 175.441086,166.295670 
	C159.715012,176.436676 141.753937,206.049332 140.229248,223.923767 
	C142.068817,224.471375 142.411697,221.988571 144.428757,222.069672 
	C144.944901,224.694092 143.221695,226.585907 142.080460,228.584961 
	C133.752441,243.172852 133.365326,257.804260 141.685730,272.536591 
	C146.517944,281.092621 151.323944,289.663483 156.121002,298.239288 
	C156.840439,299.525421 157.777573,300.757355 157.506241,303.601593 
	C150.304947,294.393341 145.977417,284.425140 139.752014,275.394379 
	C140.011108,291.673645 157.893417,322.291687 175.110657,335.576599 
	C171.402054,328.997284 166.852097,322.848083 164.669952,315.428162 
	C168.586914,319.961761 171.957214,324.838593 174.686264,330.180969 
	C183.644775,347.718018 198.725052,355.939728 217.692841,356.535034 
	C239.811996,357.229279 261.968842,356.713196 284.109253,356.750458 
	C287.116699,356.755524 290.112000,356.826965 293.345886,355.536591 
M256.491852,359.391052 
	C244.913132,359.391052 233.334412,359.391052 221.755707,359.391052 
	C233.660828,365.355591 267.984650,365.328583 275.859589,360.227295 
	C269.758179,359.051788 263.613647,359.418243 256.491852,359.391052 
M252.335846,142.080566 
	C260.563690,142.399399 268.805542,143.386856 277.964752,141.501205 
	C258.681305,136.297134 240.384323,136.464584 222.091660,142.086411 
	C231.851196,142.086411 241.610748,142.086411 252.335846,142.080566 
M309.840637,356.642761 
	C315.363678,355.192108 315.499603,349.907074 317.687958,346.021179 
	C312.393677,349.655701 306.701416,352.442230 301.675812,356.669037 
	C304.125946,356.669037 306.576080,356.669037 309.840637,356.642761 
M301.847412,145.552841 
	C306.115845,150.048233 312.078674,151.627609 317.910706,156.007278 
	C313.229401,144.987167 313.215576,144.978683 301.847412,145.552841 
M130.303589,248.917038 
	C129.599243,252.665268 129.599243,252.665268 132.589905,254.810684 
	C132.589905,252.165527 132.589905,249.458374 132.589905,245.940353 
	C131.575180,247.179855 131.084793,247.778870 130.303589,248.917038 
z"/>
<path fill="#000000" opacity="1.000000" stroke="none" 
	d="
M187.858109,269.907288 
	C190.545273,267.741974 190.566162,264.863190 190.657608,262.041382 
	C190.782806,258.178833 191.204330,254.380051 193.061172,250.917084 
	C194.573349,248.096893 196.699127,245.658768 200.182495,247.117783 
	C203.694229,248.588684 202.654068,251.676300 201.768417,254.442047 
	C201.518890,255.221252 201.287628,256.006287 200.940903,257.138275 
	C205.290955,258.592377 206.333130,262.093719 206.284317,266.925964 
	C208.564178,263.332458 208.248489,258.200684 212.727234,258.003571 
	C218.136032,257.765503 218.880051,262.978851 220.583923,267.347748 
	C223.310913,263.920441 223.172897,260.797394 222.023712,257.540314 
	C221.574570,256.267242 220.927246,254.786255 222.383438,253.954865 
	C224.080170,252.986176 225.155670,254.170212 225.874374,255.672272 
	C226.017639,255.971695 226.147079,256.474030 226.357361,256.516815 
	C234.952026,258.265564 232.151230,264.200226 231.180923,269.490814 
	C231.068771,270.102295 231.268784,270.771057 231.379333,272.055115 
	C233.942017,270.372681 234.076553,268.028534 234.552628,265.947266 
	C235.343643,262.489166 235.985657,258.958527 240.133072,257.894867 
	C241.533157,257.535797 242.926010,257.947998 243.570816,259.292938 
	C245.276154,262.850037 243.500061,265.699005 241.416977,268.407471 
	C240.354111,269.789398 239.476257,271.152374 241.100555,273.409058 
	C245.229401,271.294128 246.678040,267.788788 246.395569,263.470306 
	C246.273895,261.609955 245.882568,259.800842 246.998550,258.179871 
	C248.484604,256.021271 250.605392,255.083221 253.064255,256.177643 
	C255.219620,257.137024 256.247559,258.963654 255.818985,261.473206 
	C254.901184,266.847290 255.425629,267.410797 260.611786,266.876099 
	C260.104767,271.906372 255.868790,277.884247 252.082596,278.977631 
	C248.778748,279.931732 246.601334,278.659393 245.195099,275.294006 
	C241.748856,276.780457 238.439407,276.712250 235.706207,273.838745 
	C233.261276,275.122803 231.027359,277.723450 228.350449,275.575165 
	C223.587662,271.752991 227.128250,266.566528 226.345825,261.794739 
	C225.650452,267.412323 221.965149,270.712921 218.019073,274.053986 
	C215.037796,276.578125 212.301285,277.028046 209.698013,274.341064 
	C206.916580,271.470154 205.060013,272.762482 203.182159,275.069550 
	C200.563690,278.286591 198.387939,280.533661 193.826523,276.961975 
	C190.411453,274.287903 185.049744,275.077606 181.111969,275.472046 
	C177.175934,275.866364 174.864624,275.777618 172.851044,272.233887 
	C168.810944,275.995758 164.617432,279.037018 159.010284,276.414185 
	C155.723450,274.876740 154.749100,271.790558 155.058838,268.449951 
	C155.470642,264.008698 158.892975,262.712769 162.924408,261.719421 
	C158.068924,259.617859 150.755157,260.896271 150.679306,252.812729 
	C150.658707,250.619202 150.318420,248.102661 153.580551,246.974289 
	C155.717163,250.174744 150.549103,256.451752 157.795761,257.204010 
	C159.508865,255.624390 158.224808,253.698410 158.475906,251.994308 
	C158.905762,249.076965 160.198593,246.934814 163.053925,246.048431 
	C165.054855,245.427277 167.088440,245.529266 168.527512,247.341324 
	C170.289337,249.559723 170.345932,252.121063 168.812286,254.330795 
	C165.478897,259.133698 170.015244,260.549927 172.472977,263.691559 
	C175.169968,259.813049 178.179001,257.530762 183.027359,257.206055 
	C187.247742,256.923401 187.499802,258.362335 187.355896,261.555969 
	C187.229980,264.350769 184.934738,267.232025 187.858109,269.907288 
M159.385986,266.466400 
	C157.514313,268.766479 157.728455,271.061340 159.614410,273.168182 
	C161.021194,274.739746 162.859009,274.711243 164.619308,273.805450 
	C167.188446,272.483490 167.731827,270.343903 166.863174,266.532440 
	C165.958267,269.110962 165.700119,271.231689 163.336334,270.551941 
	C161.003006,269.883240 164.491684,264.979431 159.385986,266.466400 
M196.686646,272.107788 
	C200.468491,270.912415 201.416672,268.262787 199.758942,263.488953 
	C197.272568,265.632080 197.268295,268.704681 196.686646,272.107788 
M181.327820,265.285431 
	C181.419724,264.234283 182.120560,263.062195 180.753555,262.281036 
	C177.997650,265.892487 177.851913,266.747070 179.493652,269.889130 
	C180.807541,268.868439 180.724411,267.292267 181.327820,265.285431 
M165.267960,254.076294 
	C167.248093,252.409637 167.255676,250.699570 165.378296,248.615265 
	C163.091995,250.395111 162.384796,252.057968 165.267960,254.076294 
z"/>
<path fill="#000000" opacity="1.000000" stroke="none" 
	d="
M230.494171,226.569473 
	C222.538071,220.669861 218.680710,212.817459 217.058731,203.611908 
	C216.366989,199.685928 217.865356,197.910461 221.765182,197.980438 
	C221.931580,197.983429 222.103317,197.947632 222.263947,197.977020 
	C237.149902,200.700745 248.998459,194.157349 260.231659,185.619644 
	C262.236084,184.096222 264.095490,182.488617 265.701080,180.548141 
	C268.672699,176.956680 271.628967,173.345444 274.764160,169.899475 
	C276.242249,168.274887 278.262451,166.798447 280.362640,168.873581 
	C282.265564,170.753845 280.793213,172.602280 279.534790,174.159180 
	C276.291504,178.171677 272.957306,182.110565 269.667542,186.085556 
	C267.078979,189.213257 265.478821,192.778732 264.696075,197.078186 
	C269.202240,198.643372 273.682617,197.869965 278.064331,197.947510 
	C285.205933,198.073944 285.859619,198.765656 284.421204,205.889786 
	C282.439911,215.702606 277.262177,223.321701 268.698669,228.588440 
	C267.588074,229.271515 265.804932,229.549408 265.689606,230.986221 
	C265.231628,236.691681 261.151611,236.181885 257.286194,236.165176 
	C252.290375,236.143570 247.294052,236.161377 242.298935,236.091873 
	C239.446716,236.052185 237.117950,235.421570 236.554504,231.897507 
	C236.064194,228.831024 232.526108,228.718262 230.494171,226.569473 
M237.989853,227.809662 
	C258.243256,231.266693 277.801910,222.744324 279.106964,203.051956 
	C277.428711,202.079010 275.541962,202.636642 273.767548,202.373077 
	C265.998566,201.219131 260.108276,202.542862 257.447479,211.445831 
	C256.053619,216.109604 251.219742,217.719284 246.275146,216.924530 
	C241.354996,216.133713 238.158203,212.461426 237.676056,207.265701 
	C237.496094,205.326431 237.646942,203.356491 237.646942,200.931885 
	C232.604309,200.109818 227.635620,200.410004 222.706528,200.575180 
	C219.494263,200.682831 219.771332,203.017975 220.243301,205.322708 
	C222.324127,215.483917 228.227737,222.689163 237.989853,227.809662 
M252.741150,233.061310 
	C253.685989,232.884308 254.803680,233.519821 255.576569,232.452148 
	C250.684784,231.054184 245.800980,230.910522 240.910767,231.831116 
	C240.901627,232.240784 240.892487,232.650467 240.883347,233.060150 
	C244.568573,233.060150 248.253784,233.060150 252.741150,233.061310 
M248.439957,208.342972 
	C248.126755,208.882111 247.552841,209.372635 248.301605,210.308502 
	C251.723953,208.813904 252.493210,205.416916 253.614059,202.252884 
	C252.018936,204.131302 250.423813,206.009720 248.439957,208.342972 
z"/>
<path fill="#000000" opacity="1.000000" stroke="none" 
	d="
M286.618652,251.798401 
	C287.469513,250.315353 288.009308,249.021805 288.940674,248.143478 
	C290.814850,246.375977 293.142395,246.000076 295.359680,247.389420 
	C297.404175,248.670502 297.216858,250.731934 296.538666,252.756180 
	C296.065521,254.168381 295.566315,255.571854 294.836365,257.678986 
	C300.366180,259.312378 299.964874,263.922150 300.400757,268.503204 
	C301.066467,264.715851 302.006226,260.948822 302.289520,257.133057 
	C302.445831,255.027405 302.851532,253.867538 305.015350,254.063385 
	C307.128204,254.254623 308.533661,255.091476 307.555115,257.656616 
	C306.260590,261.049896 307.785217,264.518555 306.622894,269.166748 
	C309.435028,266.815399 308.779449,264.739655 309.179993,263.031738 
	C310.052704,259.310120 310.807190,255.551514 311.892334,251.891708 
	C312.930786,248.389343 315.204102,245.563660 319.156403,246.788010 
	C323.383362,248.097443 322.214600,251.617096 321.127991,254.719727 
	C320.857086,255.493179 320.605591,256.273407 320.366333,256.987366 
	C326.756775,262.345764 326.777802,263.416718 320.743561,269.203308 
	C322.077057,270.410828 322.717010,270.189941 328.037872,266.583710 
	C329.090546,270.643646 326.504944,272.917572 324.044586,274.824951 
	C321.114349,277.096497 318.394836,275.456390 315.936462,272.796143 
	C314.454956,275.197876 312.506195,275.283508 310.205322,275.751129 
	C306.165527,276.572113 302.374695,273.755737 298.311859,275.982910 
	C296.252686,277.111725 294.336609,275.133575 293.752899,272.646240 
	C293.350891,270.933289 294.158936,268.946655 292.593323,267.399200 
	C290.672241,268.416962 290.667969,270.407623 290.116455,272.057281 
	C288.434967,277.086609 287.643982,277.279053 283.532013,273.516174 
	C276.313751,279.593689 270.136627,277.889618 267.510895,268.875885 
	C265.601685,262.322021 266.485870,255.966446 270.302124,250.234161 
	C272.412659,247.063934 275.526215,245.516251 279.363281,246.527390 
	C282.310333,247.304001 283.431061,249.805832 283.856384,252.565750 
	C284.118774,254.268295 284.001587,256.312531 281.794952,256.376221 
	C279.609894,256.439270 279.926636,254.549530 280.215881,253.028305 
	C280.532501,251.362991 280.160339,249.963470 278.395386,249.458633 
	C276.864471,249.020721 275.848572,250.002411 275.164612,251.221970 
	C271.623718,257.535889 271.158234,264.145203 273.575378,270.918030 
	C274.138916,272.497131 275.277588,273.905243 277.279938,273.719391 
	C279.225281,273.538879 280.130524,272.089111 280.542145,270.395416 
	C282.055756,264.167023 285.810455,258.673218 286.618652,251.798401 
z"/>
<path fill="#000000" opacity="1.000000" stroke="none" 
	d="
M257.118256,285.610596 
	C265.812927,285.514313 274.152374,285.142761 282.456848,285.527161 
	C285.416962,285.664154 288.368958,284.438324 291.075653,285.721527 
	C292.429504,284.802856 291.489502,282.759888 292.632782,282.527832 
	C301.919617,284.280487 310.604919,288.846558 319.833862,282.453156 
	C322.401367,286.213928 326.628998,286.209747 331.038727,285.490875 
	C333.984772,285.010590 334.825256,286.685822 335.073090,289.196808 
	C335.353546,292.038422 333.930084,293.313080 331.327057,293.199249 
	C313.010712,292.398102 294.684631,294.402527 276.345459,292.906342 
	C273.445862,292.669769 270.203033,292.042786 267.082214,293.060486 
	C264.860657,293.785004 263.361389,292.277588 262.573944,290.031952 
	C259.474670,294.933319 253.650253,294.475769 249.833923,289.357635 
	C249.516525,289.423492 249.201279,289.499603 248.883499,289.563080 
	C246.761505,289.986816 247.387955,294.478363 244.335327,293.025482 
	C241.553009,291.701324 243.550507,288.860229 243.290604,286.719086 
	C243.156342,285.613098 243.394897,284.461853 243.461182,283.392639 
	C248.623444,280.767273 252.004440,287.093414 257.118256,285.610596 
z"/>
<path fill="#000000" opacity="1.000000" stroke="none" 
	d="
M169.984497,285.980896 
	C173.185516,285.023071 176.508774,285.721344 179.788727,285.320282 
	C182.788010,284.953552 185.418518,285.293213 187.524826,282.356964 
	C188.717560,280.694244 190.442261,281.549438 191.304855,283.526764 
	C192.484955,286.231903 194.733246,285.849243 196.638138,284.787476 
	C201.272537,282.204346 203.893600,283.056396 205.480713,287.872864 
	C208.955963,281.572113 217.087021,289.136627 220.391525,282.475281 
	C222.663956,284.456848 221.466232,286.902100 222.538757,289.122009 
	C222.925720,286.371033 224.320557,284.635406 226.920975,285.694366 
	C230.230865,287.042236 228.970322,290.068848 229.058395,292.535339 
	C222.084061,294.512909 219.833725,293.805115 217.944077,288.441132 
	C216.657700,294.806793 212.101974,293.619415 208.436951,293.091034 
	C202.316055,292.208588 195.583496,291.801331 190.144592,292.483307 
	C184.644379,293.172974 179.187378,291.707672 173.704636,292.979706 
	C171.154388,293.571381 167.868912,292.972778 164.860016,293.194214 
	C162.534958,293.365356 161.199432,291.082794 160.678558,288.871460 
	C160.107742,286.448181 161.269028,284.635284 163.358521,283.503357 
	C166.011673,282.066101 168.152451,282.732117 169.591919,285.852051 
	C168.002655,288.466400 166.388733,286.285828 164.843170,286.233246 
	C163.909622,288.074921 163.911880,289.959351 165.861847,290.346039 
	C169.014023,290.971039 169.201294,288.026093 169.984497,285.980896 
z"/>
<path fill="#000000" opacity="1.000000" stroke="none" 
	d="
M338.923889,278.347412 
	C335.662567,279.789673 332.759491,279.862030 331.362305,276.633240 
	C329.592529,272.543640 333.894531,271.632019 336.414703,269.240265 
	C330.671173,267.873413 331.340485,263.599152 331.752655,259.833008 
	C332.095764,256.697571 334.627899,255.384323 337.614197,255.976395 
	C340.223022,256.493652 341.484436,258.346436 340.891571,261.149475 
	C339.729065,266.645874 340.480927,267.471466 347.097961,266.820038 
	C344.620941,271.145447 342.936279,275.256409 338.923889,278.347412 
z"/>
<path fill="#000000" opacity="1.000000" stroke="none" 
	d="
M242.857956,172.416916 
	C238.244812,179.301010 235.236954,179.904770 232.168671,174.821396 
	C230.671204,172.340454 230.842255,170.257263 234.218185,169.784439 
	C235.712494,169.575150 237.112244,169.285660 238.523407,168.727875 
	C241.680664,167.479980 243.388962,168.429779 242.857956,172.416916 
z"/>
<path fill="#000000" opacity="1.000000" stroke="none" 
	d="
M233.520325,286.487000 
	C235.640472,285.119629 237.623489,284.687042 238.884720,286.840332 
	C239.968903,288.691315 238.984512,290.703247 237.959930,292.298706 
	C237.189621,293.498230 235.634369,293.530914 234.448196,292.668518 
	C232.288101,291.098053 231.770279,289.085297 233.520325,286.487000 
z"/>
<path fill="#000000" opacity="1.000000" stroke="none" 
	d="
M245.197449,181.941528 
	C243.742676,178.873993 245.596375,178.167038 247.704056,177.613205 
	C248.972549,177.279877 250.414124,176.551910 251.214417,178.176819 
	C252.050522,179.874451 251.302963,181.436417 250.113235,182.717972 
	C248.369186,184.596634 246.858719,183.540909 245.197449,181.941528 
z"/>
<path fill="#000000" opacity="1.000000" stroke="none" 
	d="
M230.436752,189.068405 
	C228.914993,187.831192 227.213623,186.693497 228.362411,184.893112 
	C229.496674,183.115463 231.721436,183.066284 233.657837,183.032928 
	C234.797379,183.013275 235.462662,184.042236 235.245590,185.080536 
	C234.749237,187.454742 233.673828,189.397278 230.436752,189.068405 
z"/>
<path fill="#000000" opacity="1.000000" stroke="none" 
	d="
M328.707458,254.051636 
	C328.251373,253.166046 327.873505,252.572403 327.825684,251.953247 
	C327.684204,250.121933 326.520844,247.836151 329.064758,246.852707 
	C330.690643,246.224136 332.237122,247.381287 332.187073,248.980011 
	C332.118500,251.170700 333.274384,254.568893 328.707458,254.051636 
z"/>
</svg>